<svg t="1722943125534" class="icon" viewBox="0 0 1024 1024" version="1.1" xmlns="http://www.w3.org/2000/svg" p-id="2057" width="45" height="45">
            <path d="M849.170732 0c97.404878 0 174.829268 77.42439 174.829268 174.829268v674.341464c0 97.404878-77.42439 174.829268-174.829268 174.829268H174.829268c-97.404878 0-174.829268-77.42439-174.829268-174.829268V174.829268c0-97.404878 77.42439-174.829268 174.829268-174.829268h674.341464z m-44.956098 694.321951H219.785366v64.936586h584.429268v-64.936586z m-444.565854-237.268292h-94.907317v197.307317h94.907317v-197.307317z m132.370732-199.804879h-94.907317v399.609757h94.907317v-399.609757z m134.868293 119.882927h-94.907317v277.229269h94.907317V377.131707z m132.370732 177.32683h-94.907317v99.902439h94.907317v-99.902439z" fill="#38c059" p-id="2058">
            </path>
        </svg>